<svg width="405" height="405" viewBox="0 0 405 405" fill="none" xmlns="http://www.w3.org/2000/svg">
<path d="M292.005 324.844C289.845 324.844 287.685 324.017 286.031 322.38C239.963 276.328 165.038 276.328 118.969 322.38C115.678 325.671 110.329 325.671 107.038 322.38C103.748 319.089 103.748 313.74 107.038 310.449C159.671 257.833 245.329 257.833 297.962 310.449C301.253 313.74 301.253 319.089 297.962 322.38C296.325 324.017 294.165 324.844 292.005 324.844Z" fill="#20D0C4"/>
<path d="M126.562 185.625C103.292 185.625 84.375 166.691 84.375 143.437C84.375 138.78 88.155 135 92.8125 135C97.47 135 101.25 138.78 101.25 143.437C101.25 157.393 112.607 168.75 126.562 168.75C140.518 168.75 151.875 157.393 151.875 143.437C151.875 138.78 155.655 135 160.312 135C164.97 135 168.75 138.78 168.75 143.437C168.75 166.691 149.833 185.625 126.562 185.625Z" fill="#20D0C4"/>
<path d="M278.438 185.625C255.167 185.625 236.25 166.691 236.25 143.437C236.25 138.78 240.03 135 244.688 135C249.345 135 253.125 138.78 253.125 143.437C253.125 157.393 264.482 168.75 278.438 168.75C292.393 168.75 303.75 157.393 303.75 143.437C303.75 138.78 307.53 135 312.188 135C316.845 135 320.625 138.78 320.625 143.437C320.625 166.691 301.708 185.625 278.438 185.625Z" fill="#20D0C4"/>
<path d="M202.5 404.5C91.1143 404.5 0.5 313.886 0.5 202.5C0.5 91.1143 91.1143 0.5 202.5 0.5C313.886 0.5 404.5 91.1143 404.5 202.5C404.5 313.886 313.886 404.5 202.5 404.5ZM202.5 16.375C99.877 16.375 16.375 99.877 16.375 202.5C16.375 305.123 99.877 388.625 202.5 388.625C305.123 388.625 388.625 305.123 388.625 202.5C388.625 99.877 305.123 16.375 202.5 16.375Z" fill="#20D0C4" stroke="#20D0C4"/>
</svg>
