<svg width="459" height="198" viewBox="0 0 459 198" fill="none" xmlns="http://www.w3.org/2000/svg">
<path fill-rule="evenodd" clip-rule="evenodd" d="M33.4129 57.5871L22 54L33.4129 50.4129L37 39L40.5871 50.4129L52 54L40.5871 57.5871L37 69L33.4129 57.5871Z" fill="white"/>
<path fill-rule="evenodd" clip-rule="evenodd" d="M10.0869 166.913L4 165L10.0869 163.087L12 157L13.9131 163.087L20 165L13.9131 166.913L12 173L10.0869 166.913Z" fill="white"/>
<path fill-rule="evenodd" clip-rule="evenodd" d="M117.13 104.129H133.554C135.176 104.129 136.492 105.441 136.492 107.059V119.628C136.492 121.246 135.176 122.558 133.554 122.558H117.13C115.507 122.558 114.192 121.246 114.192 119.628V107.059C114.192 105.441 115.507 104.129 117.13 104.129ZM120.068 116.699H130.616V109.989H120.068V116.699Z" fill="white"/>
<path fill-rule="evenodd" clip-rule="evenodd" d="M61.627 129.656C61.627 117.699 71.382 107.971 83.3727 107.971C95.3635 107.971 105.119 117.699 105.119 129.656C105.119 141.614 95.3633 151.342 83.3727 151.342C71.382 151.342 61.627 141.614 61.627 129.656ZM67.5025 129.656C67.5025 138.383 74.6219 145.483 83.3727 145.483C92.1236 145.483 99.243 138.383 99.243 129.656C99.243 120.93 92.1236 113.83 83.3727 113.83C74.6219 113.83 67.5025 120.929 67.5025 129.656Z" fill="white"/>
<path fill-rule="evenodd" clip-rule="evenodd" d="M74.1293 129.656C74.1293 124.574 78.2758 120.439 83.3727 120.439C88.4695 120.439 92.616 124.573 92.616 129.656C92.616 134.739 88.4695 138.874 83.3727 138.874C78.2758 138.874 74.1293 134.739 74.1293 129.656ZM80.0049 129.656C80.0049 131.508 81.5156 133.015 83.3727 133.015C85.2297 133.015 86.7404 131.508 86.7404 129.656C86.7404 127.805 85.2297 126.298 83.3727 126.298C81.5156 126.298 80.0049 127.804 80.0049 129.656Z" fill="white"/>
<path d="M66.0955 106.694V106.643C66.0955 105.025 64.7801 103.713 63.1576 103.713C61.5352 103.713 60.2197 105.025 60.2197 106.643V106.694C60.2197 108.312 61.535 109.624 63.1576 109.624C64.7801 109.624 66.0955 108.312 66.0955 106.694Z" fill="white"/>
<path fill-rule="evenodd" clip-rule="evenodd" d="M133.405 91.6533H135.429C142.912 91.6533 149 97.7246 149 105.187V151.18C149 158.643 142.912 164.714 135.429 164.714H62.5715C55.0881 164.714 49 158.643 49 151.18V105.187C49 99.0385 53.1346 93.8379 58.7756 92.1959V82.0135C58.7756 80.3955 60.091 79.0838 61.7135 79.0838H78.1375C79.7602 79.0838 81.0754 80.3955 81.0754 82.0135V91.6531H87.9629L94.6066 76.8613C95.0799 75.8076 96.1299 75.1293 97.2877 75.1293H105.541C107.164 75.1293 108.479 76.441 108.479 78.059V78.5957H112.889V78.059C112.889 76.441 114.204 75.1293 115.827 75.1293H124.08C125.238 75.1293 126.288 75.8074 126.761 76.8613L133.405 91.6533ZM102.604 80.9887H99.191L94.4012 91.6533H126.967L122.177 80.9887H118.764V81.5254C118.764 83.1434 117.449 84.4551 115.827 84.4551H105.541C103.919 84.4551 102.604 83.1434 102.604 81.5254V80.9887ZM75.1998 84.9432V91.6531H64.6514V84.9432H75.1998ZM135.429 158.855C139.672 158.855 143.124 155.412 143.124 151.18V105.187C143.124 100.955 139.672 97.5127 135.429 97.5127H62.5715C58.3279 97.5127 54.8756 100.955 54.8756 105.187V151.18C54.8756 155.412 58.3279 158.855 62.5715 158.855H135.429Z" fill="white"/>
<path fill-rule="evenodd" clip-rule="evenodd" d="M441.338 81.3602L433.349 78.8492L441.338 76.3383L443.849 68.3492L446.36 76.3383L454.349 78.8492L446.36 81.3602L443.849 89.3492L441.338 81.3602Z" fill="white"/>
<path fill-rule="evenodd" clip-rule="evenodd" d="M387.07 70H316.802C315.184 70 313.872 71.3115 313.872 72.9297V82.3459H304.397C302.779 82.3459 301.468 83.6574 301.468 85.2756V94.691H292.93C291.311 94.691 290 96.0025 290 97.6207V165.57C290 167.188 291.311 168.499 292.93 168.499H363.198C364.816 168.499 366.128 167.188 366.128 165.57V156.153H374.666C376.284 156.153 377.595 154.842 377.595 153.224V143.808H387.07C388.688 143.808 390 142.497 390 140.879V72.9297C390 71.3115 388.688 70 387.07 70ZM319.732 75.8594H384.141V118.989L357.799 96.2062C357.181 95.6721 356.369 95.4196 355.558 95.5104C354.748 95.6004 354.011 96.0246 353.525 96.6815L323.041 137.949H319.732V75.8594ZM295.859 162.64H360.268V156.153H304.397C302.779 156.153 301.468 154.842 301.468 153.224V100.55H295.859V162.64ZM371.736 150.294H307.327V88.2053H313.872V140.879C313.872 142.497 315.184 143.808 316.802 143.808H371.736V150.294ZM356.359 102.707L330.326 137.949H384.141V126.736L356.359 102.707Z" fill="white"/>
<path fill-rule="evenodd" clip-rule="evenodd" d="M345.961 90.974C345.961 96.696 341.289 101.351 335.547 101.351C329.806 101.351 325.134 96.696 325.134 90.974C325.134 85.2512 329.806 80.5957 335.547 80.5957C341.289 80.5957 345.961 85.2512 345.961 90.974ZM340.101 90.974C340.101 88.4822 338.059 86.4551 335.547 86.4551C333.037 86.4551 330.993 88.4822 330.993 90.974C330.993 93.465 333.037 95.4921 335.547 95.4921C338.059 95.4921 340.101 93.465 340.101 90.974Z" fill="white"/>
<path fill-rule="evenodd" clip-rule="evenodd" d="M286.413 45.5871L275 42L286.413 38.4129L290 27L293.587 38.4129L305 42L293.587 45.5871L290 57L286.413 45.5871Z" fill="white"/>
<path fill-rule="evenodd" clip-rule="evenodd" d="M425.989 154.011L418 151.5L425.989 148.989L428.5 141L431.011 148.989L439 151.5L431.011 154.011L428.5 162L425.989 154.011Z" fill="white"/>
<path fill-rule="evenodd" clip-rule="evenodd" d="M243.087 138.913L237 137L243.087 135.087L245 129L246.913 135.087L253 137L246.913 138.913L245 145L243.087 138.913Z" fill="white"/>
<path fill-rule="evenodd" clip-rule="evenodd" d="M149.904 106.328H146.368C145.06 106.328 144 107.389 144 108.697V146.632C144 147.94 145.06 149 146.368 149H149.904C153.16 149 155.809 146.351 155.809 143.096V134.452H162.86C164.91 137.136 168.141 138.872 171.771 138.872C177.951 138.872 182.979 133.844 182.979 127.664C182.979 126.13 182.668 124.668 182.108 123.336L185.437 117.571L223.133 139.335C223.496 139.545 223.905 139.653 224.317 139.653C224.523 139.653 224.729 139.626 224.93 139.572C225.537 139.41 226.054 139.013 226.368 138.469L229.604 132.864L235.209 136.1C235.582 136.315 235.989 136.417 236.391 136.417C237.209 136.417 238.005 135.993 238.444 135.233L247.283 119.923C247.597 119.38 247.682 118.733 247.52 118.126C247.357 117.519 246.96 117.002 246.416 116.688L243.712 115.127L250.265 113.371C250.872 113.209 251.389 112.812 251.703 112.268L256.123 104.613C256.777 103.48 256.389 102.031 255.256 101.377L184.444 60.4942C182.751 59.5168 180.822 59 178.866 59C174.856 59 171.127 61.1444 169.134 64.5961L155.874 87.5621C155.22 88.6949 155.608 90.1435 156.741 90.7974L162.345 94.0329L159.11 99.6369C158.456 100.77 158.844 102.218 159.977 102.872L173.679 110.783L170.349 116.55C167.305 116.937 164.638 118.549 162.86 120.877H155.809V112.233C155.809 108.977 153.16 106.328 149.904 106.328ZM250.836 104.295L248.091 109.05L213.761 118.248L161.161 87.8795L173.236 66.9646C174.385 64.9737 176.543 63.7369 178.866 63.7369C179.992 63.7369 181.101 64.0341 182.075 64.5964L250.836 104.295ZM235.526 130.813L241.997 119.606L238.443 117.555L231.972 128.761L235.526 130.813ZM232.665 118.087L223.45 134.049L164.396 99.9537L166.448 96.4008L212.243 122.841C212.324 122.888 212.409 122.928 212.495 122.965C212.52 122.976 212.546 122.985 212.572 122.995C212.636 123.02 212.701 123.042 212.768 123.062C212.794 123.069 212.82 123.077 212.846 123.084C212.936 123.107 213.026 123.126 213.118 123.138L213.123 123.138C213.213 123.15 213.304 123.155 213.395 123.156C213.406 123.156 213.416 123.158 213.427 123.158C213.43 123.158 213.434 123.158 213.438 123.158L213.447 123.157L213.454 123.157H213.454C213.462 123.156 213.47 123.155 213.478 123.155C213.546 123.153 213.614 123.149 213.682 123.142L213.706 123.139C213.726 123.137 213.745 123.135 213.765 123.132C213.857 123.119 213.949 123.102 214.04 123.078L232.665 118.087ZM181.334 115.203L177.781 113.151L175.502 117.098C176.815 117.563 178.015 118.266 179.052 119.155L181.334 115.203ZM165.315 128.085C165.314 128.076 165.313 128.068 165.313 128.059C165.305 127.928 165.3 127.796 165.3 127.664C165.3 127.533 165.305 127.401 165.313 127.27C165.314 127.247 165.316 127.225 165.318 127.202L165.318 127.202L165.318 127.202L165.32 127.178C165.328 127.075 165.337 126.973 165.35 126.871L165.353 126.847L165.353 126.846C165.356 126.822 165.359 126.799 165.362 126.775C165.378 126.66 165.397 126.544 165.419 126.429C165.422 126.417 165.423 126.404 165.426 126.391C165.451 126.264 165.481 126.137 165.514 126.012C165.517 126 165.52 125.989 165.524 125.978C165.526 125.971 165.528 125.963 165.53 125.956L165.53 125.956L165.54 125.92C165.565 125.831 165.592 125.742 165.621 125.655C165.63 125.628 165.638 125.601 165.648 125.574L165.669 125.513C165.693 125.444 165.719 125.376 165.746 125.307L165.763 125.264C165.777 125.226 165.792 125.187 165.809 125.149C165.849 125.052 165.893 124.956 165.939 124.861C165.973 124.789 166.011 124.719 166.048 124.649L166.066 124.614L166.084 124.581L166.103 124.546C167.206 122.549 169.333 121.193 171.771 121.193C175.339 121.193 178.242 124.096 178.242 127.664C178.242 131.232 175.339 134.135 171.771 134.135C169.332 134.135 167.205 132.779 166.102 130.782C166.083 130.749 166.066 130.715 166.048 130.682C165.972 130.539 165.901 130.392 165.836 130.242C165.834 130.237 165.832 130.232 165.829 130.227C165.827 130.223 165.826 130.218 165.824 130.214C165.818 130.203 165.813 130.192 165.809 130.181C165.794 130.147 165.781 130.112 165.767 130.077C165.76 130.058 165.753 130.039 165.745 130.02C165.719 129.953 165.693 129.885 165.669 129.817C165.652 129.77 165.636 129.722 165.621 129.674C165.592 129.587 165.566 129.499 165.541 129.411C165.539 129.405 165.538 129.4 165.536 129.394C165.534 129.386 165.532 129.379 165.53 129.372L165.522 129.344C165.519 129.335 165.517 129.326 165.514 129.317C165.481 129.192 165.451 129.066 165.426 128.938C165.424 128.925 165.422 128.912 165.419 128.899C165.397 128.785 165.378 128.67 165.362 128.554L165.358 128.522L165.353 128.481L165.35 128.458C165.337 128.357 165.328 128.254 165.32 128.151L165.317 128.112C165.316 128.103 165.315 128.094 165.315 128.085ZM155.808 129.716H160.752C160.747 129.691 160.744 129.666 160.74 129.641C160.737 129.622 160.734 129.602 160.73 129.582C160.712 129.477 160.694 129.371 160.679 129.265C160.674 129.231 160.67 129.198 160.665 129.164C160.662 129.141 160.659 129.117 160.657 129.093C160.655 129.077 160.653 129.06 160.651 129.043L160.646 129.006C160.635 128.917 160.624 128.827 160.615 128.737C160.608 128.66 160.603 128.584 160.597 128.507L160.595 128.469C160.588 128.38 160.58 128.292 160.576 128.203C160.57 128.057 160.567 127.911 160.565 127.764C160.565 127.748 160.565 127.733 160.564 127.717C160.563 127.699 160.563 127.682 160.563 127.664C160.563 127.648 160.563 127.633 160.564 127.617C160.564 127.6 160.565 127.582 160.565 127.564C160.567 127.418 160.569 127.271 160.576 127.125C160.579 127.062 160.584 126.999 160.589 126.936C160.591 126.91 160.593 126.885 160.595 126.859C160.601 126.77 160.607 126.681 160.615 126.592C160.625 126.489 160.638 126.387 160.651 126.285L160.658 126.222C160.662 126.195 160.665 126.169 160.668 126.142C160.672 126.116 160.675 126.09 160.679 126.065C160.694 125.957 160.712 125.851 160.73 125.746C160.734 125.726 160.737 125.707 160.74 125.688L160.74 125.688C160.743 125.663 160.747 125.638 160.752 125.613H155.808V129.716ZM149.904 144.263H148.737V111.065H149.904C150.537 111.065 151.072 111.6 151.072 112.232V143.096C151.072 143.729 150.537 144.263 149.904 144.263Z" fill="white"/>
</svg>
